Coordinates
version=1
nRows=13
nColumns=63
inDegrees=yes

Units are S.I. units (second, meters, Newtons, ...)
If the header above contains a line with 'inDegrees', this indicates whether rotational values are in degrees (yes) or radians (no).

endheader
time	pelvis_tilt	pelvis_list	pelvis_rotation	pelvis_tx	pelvis_ty	pelvis_tz	hip_flexion_r	hip_adduction_r	hip_rotation_r	knee_angle_r	knee_angle_r_beta	ankle_angle_r	subtalar_angle_r	mtp_angle_r	hip_flexion_l	hip_adduction_l	hip_rotation_l	knee_angle_l	knee_angle_l_beta	ankle_angle_l	subtalar_angle_l	mtp_angle_l	L5_S1_Flex_Ext	L5_S1_Lat_Bending	L5_S1_axial_rotation	L4_L5_Flex_Ext	L4_L5_Lat_Bending	L4_L5_axial_rotation	L3_L4_Flex_Ext	L3_L4_Lat_Bending	L3_L4_axial_rotation	L2_L3_Flex_Ext	L2_L3_Lat_Bending	L2_L3_axial_rotation	L1_L2_Flex_Ext	L1_L2_Lat_Bending	L1_L2_axial_rotation	L1_T12_Flex_Ext	L1_T12_Lat_Bending	L1_T12_axial_rotation	Abs_r3	Abs_r2	Abs_r1	Abs_t1	Abs_t2	neck_flexion	neck_bending	neck_rotation	arm_flex_r	arm_add_r	arm_rot_r	elbow_flex_r	pro_sup_r	wrist_flex_r	wrist_dev_r	arm_flex_l	arm_add_l	arm_rot_l	elbow_flex_l	pro_sup_l	wrist_flex_l	wrist_dev_l
3.016667	0.107035	-0.082911	86.104026	0.203406	0.921154	0.592120	3.840112	-1.796634	-10.459406	9.785153	0.170783	21.947741	16.483568	0.000000	5.826319	-0.170529	1.964086	10.224833	0.178457	19.343091	-6.717100	0.000000	0.180444	0.270422	-0.547383	0.335103	0.359662	-0.581594	0.296452	0.657505	-0.581594	0.206230	0.657505	-0.478960	0.167561	0.551445	-0.444749	0.103106	0.418884	-0.410537	1.288896	3.059073	-3.044380	0.000000	0.000000	28.118260	-4.742690	2.750618	14.834990	-9.809810	60.369774	39.678952	55.350991	0.442080	7.265019	8.106517	-8.531871	46.384585	44.669651	52.024970	-9.592549	-5.060510
3.033333	-0.020961	0.183761	86.075399	0.203695	0.921492	0.591938	3.443553	-1.905087	-10.330393	9.527249	0.166282	21.944141	16.535425	0.000000	5.416094	-0.032765	2.009495	9.993076	0.174412	19.320275	-6.687484	0.000000	0.158828	0.250106	-0.674924	0.294959	0.332640	-0.717107	0.260938	0.608107	-0.717107	0.181524	0.608107	-0.590559	0.147487	0.510015	-0.548376	0.090754	0.387414	-0.506193	1.134490	2.829245	-3.753725	0.000000	0.000000	28.083329	-4.263813	3.406781	15.176331	-9.659119	61.546581	39.908700	54.749514	0.928930	7.515345	7.830289	-8.925238	46.316952	44.904073	52.088885	-9.717455	-5.550304
3.050000	-0.173718	0.464243	86.064923	0.203995	0.921923	0.591569	3.032128	-2.045664	-10.222916	9.293204	0.162197	21.959825	16.599194	0.000000	4.936228	0.143809	2.262724	9.664059	0.168670	19.167610	-6.919818	0.000000	0.135139	0.225167	-0.789959	0.250967	0.299472	-0.839331	0.222020	0.547471	-0.839331	0.154451	0.547471	-0.691214	0.125490	0.459161	-0.641842	0.077219	0.348784	-0.592469	0.965286	2.547134	-4.393515	0.000000	0.000000	28.052840	-3.861739	3.899730	15.436968	-9.555351	62.856362	40.217558	53.963196	1.331218	7.449420	7.466807	-9.290132	45.968645	45.147067	52.541444	-9.461736	-5.625360
3.066667	-0.344099	0.738475	86.056943	0.204293	0.922421	0.590991	2.635820	-2.211391	-10.128421	9.101849	0.158857	21.993311	16.675833	0.000000	4.410394	0.348975	2.697022	9.246874	0.161388	18.906287	-7.404251	0.000000	0.112606	0.197704	-0.886724	0.209121	0.262947	-0.942144	0.185001	0.480698	-0.942144	0.128698	0.480698	-0.775884	0.104566	0.403158	-0.720463	0.064343	0.306244	-0.665043	0.804337	2.236470	-4.931694	0.000000	0.000000	28.015323	-3.498788	4.291774	15.620063	-9.504710	64.200930	40.586963	53.089871	1.708681	7.306434	7.016710	-9.601407	45.350040	45.359552	53.316165	-8.872353	-5.503905
3.083333	-0.534948	1.003768	86.050300	0.204596	0.922955	0.590188	2.256772	-2.404938	-10.046719	8.952141	0.156244	22.059720	16.767112	0.000000	3.853413	0.580411	3.244313	8.766201	0.152999	18.567272	-8.044289	0.000000	0.090941	0.166937	-0.950693	0.168886	0.222027	-1.010111	0.149407	0.405892	-1.010111	0.103936	0.405892	-0.831856	0.084448	0.340419	-0.772438	0.051964	0.258586	-0.713019	0.649581	1.888430	-5.287467	0.000000	0.000000	27.968490	-3.216749	4.470043	15.634276	-9.483765	65.155182	41.002195	52.656832	2.169580	7.243690	6.520285	-9.846524	44.495628	45.577974	54.373877	-7.974868	-5.035113
3.100000	-0.741354	1.252561	86.046693	0.204886	0.923500	0.589166	1.903851	-2.620615	-9.976666	8.848638	0.154438	22.159422	16.865584	0.000000	3.275192	0.833037	3.931314	8.228402	0.143613	18.141504	-8.878778	0.000000	0.071203	0.133741	-0.983923	0.132231	0.177876	-1.045418	0.116979	0.325179	-1.045418	0.081378	0.325179	-0.860933	0.066119	0.272725	-0.799437	0.040685	0.207165	-0.737942	0.508594	1.512909	-5.472284	0.000000	0.000000	27.899010	-2.986181	4.456753	15.544219	-9.493884	65.851445	41.428774	52.441144	2.746001	7.281998	5.969378	-10.005091	43.329366	45.815975	55.750711	-6.780798	-4.206630
3.116667	-0.963239	1.481238	86.052538	0.205153	0.924032	0.587961	1.586416	-2.859806	-9.937800	8.803685	0.153653	22.293823	16.980805	0.000000	2.688199	1.107346	4.814448	7.649230	0.133504	17.608724	-9.983871	0.000000	0.054189	0.097897	-0.990953	0.100635	0.130203	-1.052888	0.089028	0.238026	-1.052888	0.061933	0.238026	-0.867084	0.050320	0.199631	-0.805150	0.030964	0.151642	-0.743215	0.387069	1.107429	-5.511385	0.000000	0.000000	27.783677	-2.787414	4.255344	15.380097	-9.518719	66.281061	41.839784	52.445029	3.487051	7.485317	5.378165	-10.073065	41.844974	46.079579	57.489051	-5.286270	-3.002900
3.133333	-1.195358	1.693576	86.057032	0.205419	0.924542	0.586642	1.298881	-3.116137	-9.923245	8.801149	0.153609	22.448668	17.107352	0.000000	2.121362	1.388352	5.603963	7.091214	0.123765	17.103710	-10.956475	0.000000	0.039129	0.059977	-0.973231	0.072666	0.079769	-1.034058	0.064285	0.145828	-1.034058	0.044721	0.145828	-0.851578	0.036335	0.122305	-0.790751	0.022358	0.092904	-0.729924	0.279495	0.678472	-5.412821	0.000000	0.000000	27.625215	-2.608347	3.918395	15.135262	-9.552667	66.352998	42.245299	52.808722	4.373572	7.829904	4.798048	-10.107888	40.288467	46.387890	59.235797	-3.729168	-1.540197
3.150000	-1.432571	1.887822	86.037326	0.205704	0.925011	0.585273	1.049508	-3.380581	-9.882964	8.842471	0.154330	22.611834	17.202093	0.000000	1.573709	1.673227	6.421164	6.545728	0.114245	16.551578	-12.020326	0.000000	0.026887	0.020298	-0.936680	0.049932	0.026996	-0.995223	0.044172	0.049353	-0.995223	0.030729	0.049353	-0.819595	0.024967	0.041392	-0.761053	0.015363	0.031442	-0.702510	0.192050	0.229616	-5.209533	0.000000	0.000000	27.403599	-2.456320	3.443711	14.863830	-9.585499	66.220631	42.630930	53.304714	5.343212	8.280719	4.206870	-10.071320	38.517932	46.718846	61.213074	-1.973546	0.209867
3.166667	-1.665339	2.073945	86.013352	0.205964	0.925450	0.583920	0.826813	-3.650220	-9.884316	8.926703	0.155800	22.771006	17.311756	0.000000	1.054776	1.954953	7.212914	6.044116	0.105490	15.995681	-13.074549	0.000000	0.016196	-0.019487	-0.895736	0.030077	-0.025918	-0.951720	0.026608	-0.047382	-0.951720	0.018510	-0.047382	-0.783769	0.015039	-0.039739	-0.727786	0.009254	-0.030186	-0.671802	0.115685	-0.220446	-4.981816	0.000000	0.000000	27.116422	-2.304930	2.940768	14.610066	-9.595605	65.970916	42.960488	53.970798	6.342127	8.800960	3.617253	-9.983794	36.639530	47.066066	63.238909	-0.182466	2.130161
3.183333	-1.877592	2.251918	85.994701	0.206170	0.925848	0.582656	0.629060	-3.908263	-9.933883	9.046110	0.157884	22.914898	17.422913	0.000000	0.583208	2.213199	7.901182	5.613030	0.097966	15.476122	-14.004962	0.000000	0.006825	-0.056662	-0.859768	0.012675	-0.075361	-0.913503	0.011213	-0.137769	-0.913503	0.007800	-0.137769	-0.752297	0.006338	-0.115546	-0.698561	0.003900	-0.087770	-0.644826	0.048750	-0.640975	-4.781771	0.000000	0.000000	26.761769	-2.168244	2.478408	14.424041	-9.586904	65.788761	43.215590	54.548197	7.273148	9.299663	3.057838	-9.864449	34.825977	47.425888	64.905470	1.443127	4.060231
3.200000	-2.062475	2.412098	85.943685	0.206326	0.926191	0.581531	0.479708	-4.148627	-10.013873	9.213618	0.160808	23.034183	17.539600	0.000000	0.188754	2.432516	8.252675	5.291573	0.092355	15.098160	-14.517711	0.000000	-0.000062	-0.089319	-0.819229	-0.000115	-0.118795	-0.870430	-0.000102	-0.217171	-0.870430	-0.000071	-0.217171	-0.716825	-0.000057	-0.182140	-0.665623	-0.000035	-0.138355	-0.614422	-0.000442	-1.010397	-4.556304	0.000000	0.000000	26.356661	-2.090680	2.032818	14.279973	-9.553588	65.603070	43.367467	55.130944	8.131541	9.724614	2.542631	-9.695508	33.097830	47.758370	66.267815	2.901266	6.025272
3.216667	-2.213849	2.575232	85.921103	0.206354	0.926511	0.580508	0.318172	-4.360527	-10.136942	9.367690	0.163497	23.111297	17.642829	0.000000	-0.171719	2.622578	8.523539	5.029027	0.087773	14.771785	-14.919797	0.000000	-0.007648	-0.115755	-0.794783	-0.014202	-0.153955	-0.844457	-0.012564	-0.281447	-0.844457	-0.008740	-0.281447	-0.695435	-0.007102	-0.236048	-0.645761	-0.004370	-0.179305	-0.596087	-0.054626	-1.309447	-4.420346	0.000000	0.000000	25.916726	-2.031484	1.721629	14.223662	-9.477104	65.552372	43.389538	55.654972	8.792808	10.154546	2.055746	-9.494931	31.464559	48.048893	67.279565	4.106250	7.804536
